<?xml version="1.0" encoding="UTF-8"?><svg xmlns="http://www.w3.org/2000/svg" width="1224" height="821" style="font-family: Arial, sans-serif"><g class="path" style="cursor: move;"><path stroke="#4dac26" stroke-width="1.5" fill="none" d="M383.33,503.49L384.05,567.84"></path><path stroke="#4dac26" stroke-width="1.5" fill="white" class="arrowfront" d="M-1,0L15,5L15,-5Z" transform="translate(384.0470170098637,567.8374861053748) rotate(269.360425096514)"></path></g><g class="path" style="cursor: move;"><path stroke="#4dac26" stroke-width="1.5" fill="none" d="M816.63,506.78L817.34,569.48"></path><path stroke="#4dac26" stroke-width="1.5" fill="white" class="arrowfront" d="M-1,0L15,5L15,-5Z" transform="translate(817.338165037432,569.4795333426792) rotate(269.35143992460155)"></path></g><g class="path" style="cursor: move;"><path stroke="black" stroke-width="1.5" fill="none" d="M597.94,677.80L575.20,753.46"></path><path stroke="black" stroke-width="1.5" fill="white" class="arrowfront" d="M-1,0L15,5L15,-5Z" transform="translate(575.2031964580988,753.4598528418053) rotate(-73.2726858597407)"></path></g><g class="path" style="cursor: move;"><path stroke="#4dac26" stroke-width="1.5" fill="none" d="M584.20,667.49L406.01,712.38"></path><path stroke="#4dac26" stroke-width="1.5" fill="white" class="arrowfront" d="M-1,0L15,5L15,-5Z" transform="translate(406.01060888192853,712.3794978620627) rotate(-14.13870740590235)"></path></g><g class="path" style="cursor: move;"><path stroke="black" stroke-width="1.5" fill="none" d="M587.93,772.40L804.87,770.30"></path><path stroke="black" stroke-width="1.5" fill="white" class="arrowfront" d="M-1,0L15,5L15,-5Z" transform="translate(804.8734183892578,770.3047441781274) rotate(179.44779360784142)"></path></g><g class="path" style="cursor: move;"><path stroke="#4dac26" stroke-width="1.5" fill="none" d="M365.24,709.24Q178.70,600.97 361.74,498.73"></path><path stroke="#4dac26" stroke-width="1.5" fill="white" class="arrowfront" d="M-1,0L15,5L15,-5Z" transform="translate(361.7436236381528,498.72798929736837) rotate(150.8127332321129)"></path></g><g class="path" style="cursor: move;"><path stroke="#4dac26" stroke-width="1.5" fill="none" d="M465.76,354.16L577.32,405.92"></path><path stroke="#4dac26" stroke-width="1.5" fill="white" class="arrowfront" d="M-1,0L15,5L15,-5Z" transform="translate(577.3211150789546,405.9190013500583) rotate(204.88734320650948)"></path></g><g class="path" style="cursor: move;"><path stroke="black" stroke-width="1.5" fill="none" d="M375.77,129.12L375.77,203.31"></path><path stroke="black" stroke-width="1.5" fill="white" class="arrowfront" d="M-1,0L15,5L15,-5Z" transform="translate(375.76801429047185,203.3120000000013) rotate(269.99998952494707)"></path></g><g class="path" style="cursor: move;"><path stroke="#4dac26" stroke-width="1.5" fill="none" d="M730.09,355.80L622.20,405.92"></path><path stroke="#4dac26" stroke-width="1.5" fill="white" class="arrowfront" d="M-1,0L15,5L15,-5Z" transform="translate(622.1998159039281,405.9204707113611) rotate(-24.91567336813441)"></path></g><g class="path" style="cursor: move;"><path stroke="#4dac26" stroke-width="1.5" fill="none" d="M799.07,595.08L626.78,656.32"></path><path stroke="#4dac26" stroke-width="1.5" fill="white" class="arrowfront" d="M-1,0L15,5L15,-5Z" transform="translate(626.7775546082337,656.3219324162371) rotate(-19.56776097128918)"></path></g><g class="path" style="cursor: move;"><path stroke="#4dac26" stroke-width="1.5" fill="none" d="M402.90,593.43L580.08,656.33"></path><path stroke="#4dac26" stroke-width="1.5" fill="white" class="arrowfront" d="M-1,0L15,5L15,-5Z" transform="translate(580.0846104371086,656.3255513544317) rotate(199.54177153656266)"></path></g><g class="path" style="cursor: move;"><path stroke="#4dac26" stroke-width="1.5" fill="none" d="M581.17,420.15L406.49,481.52"></path><path stroke="#4dac26" stroke-width="1.5" fill="white" class="arrowfront" d="M-1,0L15,5L15,-5Z" transform="translate(406.49096655098094,481.51786687970315) rotate(-19.356373380865016)"></path></g><g class="path" style="cursor: move;"><path stroke="#4dac26" stroke-width="1.5" fill="none" d="M618.23,420.36L793.16,484.54"></path><path stroke="#4dac26" stroke-width="1.5" fill="white" class="arrowfront" d="M-1,0L15,5L15,-5Z" transform="translate(793.1600940079586,484.53530276793714) rotate(200.1462764471746)"></path></g><g class="path" style="cursor: move;"><path stroke="black" stroke-width="1.5" fill="none" d="M384.85,236.68L436.09,329.78"></path><path stroke="black" stroke-width="1.5" fill="white" class="arrowfront" d="M-1,0L15,5L15,-5Z" transform="translate(436.0917459633674,329.77965600333516) rotate(241.17200531693277)"></path></g><g class="path" style="cursor: move;"><path stroke="black" stroke-width="1.5" fill="none" d="M394.38,228.81L724.46,342.01"></path><path stroke="black" stroke-width="1.5" fill="white" class="arrowfront" d="M-1,0L15,5L15,-5Z" transform="translate(724.4555401042246,342.00955773216145) rotate(198.92937065440444)"></path></g><g class="path" style="cursor: move;"><path stroke="#4dac26" stroke-width="1.5" fill="none" d="M582.91,187.72L463.47,331.71"></path><path stroke="#4dac26" stroke-width="1.5" fill="white" class="arrowfront" d="M-1,0L15,5L15,-5Z" transform="translate(463.46627722349484,331.712088137418) rotate(-50.32455832298141)"></path></g><g class="path" style="cursor: move;"><path stroke="#4dac26" stroke-width="1.5" fill="none" d="M607.06,187.58L732.09,333.54"></path><path stroke="#4dac26" stroke-width="1.5" fill="white" class="arrowfront" d="M-1,0L15,5L15,-5Z" transform="translate(732.0904555713495,333.5438212078681) rotate(229.4157575195856)"></path></g><g class="path" style="cursor: move;"><path stroke="black" stroke-width="1.5" fill="none" d="M860.68,122.11L469.43,337.15"></path><path stroke="black" stroke-width="1.5" fill="white" class="arrowfront" d="M-1,0L15,5L15,-5Z" transform="translate(469.4298044191673,337.15183949321266) rotate(-28.79370157707311)"></path></g><g class="path" style="cursor: move;"><path stroke="black" stroke-width="1.5" fill="none" d="M868.90,127.63L759.28,331.22"></path><path stroke="black" stroke-width="1.5" fill="white" class="arrowfront" d="M-1,0L15,5L15,-5Z" transform="translate(759.2822348017244,331.2157077914691) rotate(-61.70103883161269)"></path></g><g class="path" style="cursor: move;"><path stroke="#4dac26" stroke-width="1.5" fill="none" d="M591.68,58.51L594.21,155.70"></path><path stroke="#4dac26" stroke-width="1.5" fill="white" class="arrowfront" d="M-1,0L15,5L15,-5Z" transform="translate(594.2126506146843,155.70111838872018) rotate(268.5076446974209)"></path></g><g style="cursor: move; touch-action: none;" transform="translate(383.112,488.495)"><path fill-opacity="0.7" stroke-width="2" z-index="1" d="M 0 0 m 20, 0 a 20,15 0 1,1 -40,0 a 20,15 0 1,1 40,0" fill="#00a2e0" stroke="#00a2e0"></path><rect class="textbg" fill="#ffffff" width="303.29998779296875" height="18" x="-151.64999389648438" y="20.600000381469727"></rect><text class="nodelabel" y="35" text-anchor="middle">Appointment for cervical screening at clinic</text></g><g style="cursor: move; touch-action: none;" transform="translate(816.408,491.779)"><path fill-opacity="0.7" stroke-width="2" z-index="1" d="M 0 0 m 20, 0 a 20,15 0 1,1 -40,0 a 20,15 0 1,1 40,0" fill="#00a2e0" stroke="#00a2e0"></path><rect class="textbg" fill="#ffffff" width="365.2833251953125" height="18" x="-182.64166259765625" y="20.600000381469727"></rect><text class="nodelabel" y="35" text-anchor="middle">Appointment for cervical screening at different clinic</text></g><g style="cursor: move; touch-action: none;" transform="translate(603.432,663.368)"><path fill-opacity="0.7" stroke-width="2" z-index="1" d="M 0 0 m 20, 0 a 20,15 0 1,1 -40,0 a 20,15 0 1,1 40,0" fill="#00a2e0" stroke="#000000"></path><rect class="textbg" fill="#ffffff" width="279.3166809082031" height="18" x="-139.6583251953125" y="20.600000381469727"></rect><text class="nodelabel" y="35" text-anchor="middle">Increased proportion cervical screening</text><path d="M-2,-6L2,-6L2,6L-2,6Z" fill="#000000"></path></g><g style="cursor: move; touch-action: none;" transform="translate(567.936,772.5609999999999)"><path fill-opacity="0.7" stroke-width="2" z-index="1" d="M 0 0 m 20, 0 a 20,15 0 1,1 -40,0 a 20,15 0 1,1 40,0" fill="#aaaaaa" stroke="#666666"></path><rect class="textbg" fill="#ffffff" width="280.20001220703125" height="18" x="-140.09999084472656" y="20.600000381469727"></rect><text class="nodelabel" y="35" text-anchor="middle">Increased referrals for cervical changes</text></g><g style="cursor: move; touch-action: none;" transform="translate(381.888,717.554)"><path fill-opacity="0.7" stroke-width="2" z-index="1" d="M 0 0 m 20, 0 a 20,15 0 1,1 -40,0 a 20,15 0 1,1 40,0" fill="#00a2e0" stroke="#00a2e0"></path><rect class="textbg" fill="#ffffff" width="306.8666687011719" height="18" x="-153.43333435058594" y="20.600000381469727"></rect><text class="nodelabel" y="35" text-anchor="middle">Increased review of minor cervical changes</text></g><g style="cursor: move; touch-action: none;" transform="translate(447.984,347.283)"><path fill-opacity="0.7" stroke-width="2" z-index="1" d="M 0 0 m 20, 0 a 20,15 0 1,1 -40,0 a 20,15 0 1,1 40,0" fill="#00a2e0" stroke="#00a2e0"></path><rect class="textbg" fill="#ffffff" width="292.6666564941406" height="18" x="-146.3333282470703" y="20.600000381469727"></rect><text class="nodelabel" y="35" text-anchor="middle">Knowledge of need for cervical screening</text></g><g style="cursor: move; touch-action: none;" transform="translate(375.768,114.11900000000001)"><path fill-opacity="0.7" stroke-width="2" z-index="1" d="M 0 0 m 20, 0 a 20,15 0 1,1 -40,0 a 20,15 0 1,1 40,0" fill="#00a2e0" stroke="#00a2e0"></path><rect class="textbg" fill="#ffffff" width="258.8500061035156" height="18" x="-129.4250030517578" y="20.600000381469727"></rect><text class="nodelabel" y="35" text-anchor="middle">Letter invitation to cervical screening</text></g><g style="cursor: move; touch-action: none;" transform="translate(747.864,348.925)"><path fill-opacity="0.7" stroke-width="2" z-index="1" d="M 0 0 m 20, 0 a 20,15 0 1,1 -40,0 a 20,15 0 1,1 40,0" fill="#00a2e0" stroke="#00a2e0"></path><rect class="textbg" fill="#ffffff" width="197.48333740234375" height="18" x="-98.74166107177734" y="20.600000381469727"></rect><text class="nodelabel" y="35" text-anchor="middle">Motivated to screen on-time</text></g><g style="cursor: move; touch-action: none;" transform="translate(817.6320000000001,589.478)"><path fill-opacity="0.7" stroke-width="2" z-index="1" d="M 0 0 m 20, 0 a 20,15 0 1,1 -40,0 a 20,15 0 1,1 40,0" fill="#00a2e0" stroke="#00a2e0"></path><rect class="textbg" fill="#ffffff" width="471.48333740234375" height="18" x="-235.7416534423828" y="20.600000381469727"></rect><text class="nodelabel" y="35" text-anchor="middle">Patient attends appointment at another clinic for cervical screening</text></g><g style="cursor: move; touch-action: none;" transform="translate(384.336,587.836)"><path fill-opacity="0.7" stroke-width="2" z-index="1" d="M 0 0 m 20, 0 a 20,15 0 1,1 -40,0 a 20,15 0 1,1 40,0" fill="#00a2e0" stroke="#00a2e0"></path><rect class="textbg" fill="#ffffff" width="354.95001220703125" height="18" x="-177.47499084472656" y="20.600000381469727"></rect><text class="nodelabel" y="35" text-anchor="middle">Patient attends appointment for cervical screening</text></g><g style="cursor: move; touch-action: none;" transform="translate(599.76,414.605)"><path fill-opacity="0.7" stroke-width="2" z-index="1" d="M 0 0 m 20, 0 a 20,15 0 1,1 -40,0 a 20,15 0 1,1 40,0" fill="#00a2e0" stroke="#00a2e0"></path><rect class="textbg" fill="#ffffff" width="281.98333740234375" height="18" x="-140.99166870117188" y="20.600000381469727"></rect><text class="nodelabel" y="35" text-anchor="middle">Patient decides to do cervical screening</text></g><g style="cursor: move; touch-action: none;" transform="translate(375.768,223.312)"><path fill-opacity="0.7" stroke-width="2" z-index="1" d="M 0 0 m 20, 0 a 20,15 0 1,1 -40,0 a 20,15 0 1,1 40,0" fill="#00a2e0" stroke="#00a2e0"></path><rect class="textbg" fill="#ffffff" width="345.1666564941406" height="18" x="-172.5833282470703" y="20.600000381469727"></rect><text class="nodelabel" y="35" text-anchor="middle">Patient receives and understands letter invitation</text></g><g style="cursor: move; touch-action: none;" transform="translate(594.864,175.694)"><path fill-opacity="0.7" stroke-width="2" z-index="1" d="M 0 0 m 20, 0 a 20,15 0 1,1 -40,0 a 20,15 0 1,1 40,0" fill="#00a2e0" stroke="#00a2e0"></path><rect class="textbg" fill="#ffffff" width="379.8833312988281" height="18" x="-189.94166564941406" y="20.600000381469727"></rect><text class="nodelabel" y="35" text-anchor="middle">Patient receives and understands telephone invitation</text></g><g style="cursor: move; touch-action: none;" transform="translate(877.608,114.11900000000001)"><path fill-opacity="0.7" stroke-width="2" z-index="1" d="M 0 0 m 20, 0 a 20,15 0 1,1 -40,0 a 20,15 0 1,1 40,0" fill="#00a2e0" stroke="#00a2e0"></path><rect class="textbg" fill="#ffffff" width="539.933349609375" height="18" x="-269.9666442871094" y="20.600000381469727"></rect><text class="nodelabel" y="35" text-anchor="middle">Patient receives information from other sources regarding cervical screening</text></g><g style="cursor: move; touch-action: none;" transform="translate(829.8720000000001,770.098)"><path fill-opacity="0.7" stroke-width="2" z-index="1" d="M 0 0 m 20, 0 a 20,15 0 1,1 -40,0 a 20,15 0 1,1 40,0" fill="#aaaaaa" stroke="#666666"></path><rect class="textbg" fill="#ffffff" width="175.21665954589844" height="18" x="-87.60832977294922" y="20.600000381469727"></rect><text class="nodelabel" y="35" text-anchor="middle">Reduced cervical cancer</text></g><g style="cursor: move; touch-action: none;" transform="translate(591.192,43.513)"><path fill-opacity="0.7" stroke-width="2" z-index="1" d="M 0 0 m 20, 0 a 20,15 0 1,1 -40,0 a 20,15 0 1,1 40,0" fill="#bed403" stroke="#000000"></path><rect class="textbg" fill="#ffffff" width="291.76666259765625" height="18" x="-145.88333129882812" y="20.600000381469727"></rect><text class="nodelabel" y="35" text-anchor="middle">Telephone invitation to cervical screening</text><path d="M-4,-6L7,0L-4,6Z" fill="#000000"></path></g></svg>