<?xml version="1.0" encoding="UTF-8"?><svg xmlns="http://www.w3.org/2000/svg" width="1433" height="928" style="font-family: Arial, sans-serif"><g class="path" style="cursor: move;"><path stroke="#4dac26" stroke-width="1.5" fill="none" d="M448.75,567.16L449.66,644.45"></path><path stroke="#4dac26" stroke-width="1.5" fill="white" class="arrowfront" d="M-1,0L15,5L15,-5Z" transform="translate(449.66268241475956,644.4495879996244) rotate(269.3260443215214)"></path></g><g class="path" style="cursor: move;"><path stroke="#4dac26" stroke-width="1.5" fill="none" d="M956.04,570.87L956.94,646.31"></path><path stroke="#4dac26" stroke-width="1.5" fill="white" class="arrowfront" d="M-1,0L15,5L15,-5Z" transform="translate(956.939657549162,646.3056384285204) rotate(269.31614567183533)"></path></g><g class="path" style="cursor: move;"><path stroke="black" stroke-width="1.5" fill="none" d="M706.69,764.82L707.61,844.90"></path><path stroke="black" stroke-width="1.5" fill="white" class="arrowfront" d="M-1,0L15,5L15,-5Z" transform="translate(707.6099247435869,844.8975164085085) rotate(269.34040685099234)"></path></g><g class="path" style="cursor: move;"><path stroke="#4dac26" stroke-width="1.5" fill="none" d="M542.38,399.24L679.58,460.20"></path><path stroke="#4dac26" stroke-width="1.5" fill="white" class="arrowfront" d="M-1,0L15,5L15,-5Z" transform="translate(679.5835570357746,460.19533291950705) rotate(203.95510290922928)"></path></g><g class="path" style="cursor: move;"><path stroke="black" stroke-width="1.5" fill="none" d="M401.96,143.32L432.04,233.48"></path><path stroke="black" stroke-width="1.5" fill="white" class="arrowfront" d="M-1,0L15,5L15,-5Z" transform="translate(432.04450650827954,233.47861838656536) rotate(251.549100095695)"></path></g><g class="path" style="cursor: move;"><path stroke="#4dac26" stroke-width="1.5" fill="none" d="M857.66,401.09L724.76,460.20"></path><path stroke="#4dac26" stroke-width="1.5" fill="white" class="arrowfront" d="M-1,0L15,5L15,-5Z" transform="translate(724.7572983010593,460.1968204222293) rotate(-23.975720220532004)"></path></g><g class="path" style="cursor: move;"><path stroke="#4dac26" stroke-width="1.5" fill="none" d="M938.60,671.74L729.92,742.99"></path><path stroke="#4dac26" stroke-width="1.5" fill="white" class="arrowfront" d="M-1,0L15,5L15,-5Z" transform="translate(729.9157830125534,742.9896391305468) rotate(-18.85149611459839)"></path></g><g class="path" style="cursor: move;"><path stroke="#4dac26" stroke-width="1.5" fill="none" d="M468.61,669.88L683.02,742.99"></path><path stroke="#4dac26" stroke-width="1.5" fill="white" class="arrowfront" d="M-1,0L15,5L15,-5Z" transform="translate(683.0204776485716,742.9931876955103) rotate(198.82910409905054)"></path></g><g class="path" style="cursor: move;"><path stroke="#4dac26" stroke-width="1.5" fill="none" d="M683.50,474.02L472.01,545.39"></path><path stroke="#4dac26" stroke-width="1.5" fill="white" class="arrowfront" d="M-1,0L15,5L15,-5Z" transform="translate(472.0073737071388,545.393106572383) rotate(-18.64794004959682)"></path></g><g class="path" style="cursor: move;"><path stroke="#4dac26" stroke-width="1.5" fill="none" d="M720.74,474.23L932.46,548.84"></path><path stroke="#4dac26" stroke-width="1.5" fill="white" class="arrowfront" d="M-1,0L15,5L15,-5Z" transform="translate(932.4565663776813,548.8441391292463) rotate(199.41412706282142)"></path></g><g class="path" style="cursor: move;"><path stroke="black" stroke-width="1.5" fill="none" d="M449.27,265.69L512.27,375.19"></path><path stroke="black" stroke-width="1.5" fill="white" class="arrowfront" d="M-1,0L15,5L15,-5Z" transform="translate(512.2661014934257,375.1854400455436) rotate(240.0863573740882)"></path></g><g class="path" style="cursor: move;"><path stroke="black" stroke-width="1.5" fill="none" d="M458.63,257.75L852.06,387.69"></path><path stroke="black" stroke-width="1.5" fill="white" class="arrowfront" d="M-1,0L15,5L15,-5Z" transform="translate(852.0567098416969,387.69343753020837) rotate(198.2775453008241)"></path></g><g class="path" style="cursor: move;"><path stroke="#4dac26" stroke-width="1.5" fill="none" d="M684.22,210.47L540.29,377.19"></path><path stroke="#4dac26" stroke-width="1.5" fill="white" class="arrowfront" d="M-1,0L15,5L15,-5Z" transform="translate(540.2871806736537,377.1863984477092) rotate(-49.19634367961495)"></path></g><g class="path" style="cursor: move;"><path stroke="#4dac26" stroke-width="1.5" fill="none" d="M708.90,210.33L859.46,379.24"></path><path stroke="#4dac26" stroke-width="1.5" fill="white" class="arrowfront" d="M-1,0L15,5L15,-5Z" transform="translate(859.4645897831402,379.2370581171782) rotate(228.28595269190905)"></path></g><g class="path" style="cursor: move;"><path stroke="black" stroke-width="1.5" fill="none" d="M1010.37,136.79L546.12,382.67"></path><path stroke="black" stroke-width="1.5" fill="white" class="arrowfront" d="M-1,0L15,5L15,-5Z" transform="translate(546.1152665406829,382.6706254879421) rotate(-27.906678785469968)"></path></g><g class="path" style="cursor: move;"><path stroke="black" stroke-width="1.5" fill="none" d="M1018.50,142.41L887.30,376.83"></path><path stroke="black" stroke-width="1.5" fill="white" class="arrowfront" d="M-1,0L15,5L15,-5Z" transform="translate(887.2957398837426,376.8261138870325) rotate(-60.763392991379554)"></path></g><g class="path" style="cursor: move;"><path stroke="#4dac26" stroke-width="1.5" fill="none" d="M692.65,64.18L695.76,178.60"></path><path stroke="#4dac26" stroke-width="1.5" fill="white" class="arrowfront" d="M-1,0L15,5L15,-5Z" transform="translate(695.7633741097923,178.59964790603394) rotate(268.4388729443257)"></path></g><g style="cursor: move; touch-action: none;" transform="translate(448.529,552.16)"><path fill-opacity="0.7" stroke-width="2" z-index="1" d="M 0 0 m 20, 0 a 20,15 0 1,1 -40,0 a 20,15 0 1,1 40,0" fill="#00a2e0" stroke="#00a2e0"></path><rect class="textbg" fill="#ffffff" width="303.29998779296875" height="17" x="-151.64999389648438" y="21"></rect><text class="nodelabel" y="35" text-anchor="middle">Appointment for cervical screening at clinic</text></g><g style="cursor: move; touch-action: none;" transform="translate(955.811,555.872)"><path fill-opacity="0.7" stroke-width="2" z-index="1" d="M 0 0 m 20, 0 a 20,15 0 1,1 -40,0 a 20,15 0 1,1 40,0" fill="#00a2e0" stroke="#00a2e0"></path><rect class="textbg" fill="#ffffff" width="365.2833251953125" height="17" x="-182.64166259765625" y="21"></rect><text class="nodelabel" y="35" text-anchor="middle">Appointment for cervical screening at different clinic</text></g><g style="cursor: move; touch-action: none;" transform="translate(706.4689999999999,749.8240000000001)"><path fill-opacity="0.7" stroke-width="2" z-index="1" d="M 0 0 m 20, 0 a 20,15 0 1,1 -40,0 a 20,15 0 1,1 40,0" fill="#00a2e0" stroke="#000000"></path><rect class="textbg" fill="#ffffff" width="279.3166809082031" height="17" x="-139.65834045410156" y="21"></rect><text class="nodelabel" y="35" text-anchor="middle">Increased proportion cervical screening</text><path d="M-2,-6L2,-6L2,6L-2,6Z" fill="#000000"></path></g><g style="cursor: move; touch-action: none;" transform="translate(524.478,392.544)"><path fill-opacity="0.7" stroke-width="2" z-index="1" d="M 0 0 m 20, 0 a 20,15 0 1,1 -40,0 a 20,15 0 1,1 40,0" fill="#00a2e0" stroke="#00a2e0"></path><rect class="textbg" fill="#ffffff" width="292.6666564941406" height="17" x="-146.3333282470703" y="21"></rect><text class="nodelabel" y="35" text-anchor="middle">Knowledge of need for cervical screening</text></g><g style="cursor: move; touch-action: none;" transform="translate(396,129)"><path fill-opacity="0.7" stroke-width="2" z-index="1" d="M 0 0 m 20, 0 a 20,15 0 1,1 -40,0 a 20,15 0 1,1 40,0" fill="#00a2e0" stroke="black"></path><rect class="textbg" fill="#ffffff" width="258.8500061035156" height="17" x="-129.4250030517578" y="21"></rect><text class="nodelabel" y="35" text-anchor="middle">Letter invitation to cervical screening</text></g><g style="cursor: move; touch-action: none;" transform="translate(875.563,394.4)"><path fill-opacity="0.7" stroke-width="2" z-index="1" d="M 0 0 m 20, 0 a 20,15 0 1,1 -40,0 a 20,15 0 1,1 40,0" fill="#00a2e0" stroke="#00a2e0"></path><rect class="textbg" fill="#ffffff" width="197.48333740234375" height="17" x="-98.74166870117188" y="21"></rect><text class="nodelabel" y="35" text-anchor="middle">Motivated to screen on-time</text></g><g style="cursor: move; touch-action: none;" transform="translate(957.244,666.304)"><path fill-opacity="0.7" stroke-width="2" z-index="1" d="M 0 0 m 20, 0 a 20,15 0 1,1 -40,0 a 20,15 0 1,1 40,0" fill="#00a2e0" stroke="#00a2e0"></path><rect class="textbg" fill="#ffffff" width="471.48333740234375" height="17" x="-235.74166870117188" y="21"></rect><text class="nodelabel" y="35" text-anchor="middle">Patient attends appointment at another clinic for cervical screening</text></g><g style="cursor: move; touch-action: none;" transform="translate(449.962,664.448)"><path fill-opacity="0.7" stroke-width="2" z-index="1" d="M 0 0 m 20, 0 a 20,15 0 1,1 -40,0 a 20,15 0 1,1 40,0" fill="#00a2e0" stroke="#00a2e0"></path><rect class="textbg" fill="#ffffff" width="354.95001220703125" height="17" x="-177.47500610351562" y="21"></rect><text class="nodelabel" y="35" text-anchor="middle">Patient attends appointment for cervical screening</text></g><g style="cursor: move; touch-action: none;" transform="translate(702.17,468.64)"><path fill-opacity="0.7" stroke-width="2" z-index="1" d="M 0 0 m 20, 0 a 20,15 0 1,1 -40,0 a 20,15 0 1,1 40,0" fill="#00a2e0" stroke="#00a2e0"></path><rect class="textbg" fill="#ffffff" width="281.98333740234375" height="17" x="-140.99166870117188" y="21"></rect><text class="nodelabel" y="35" text-anchor="middle">Patient decides to do cervical screening</text></g><g style="cursor: move; touch-action: none;" transform="translate(439.931,252.41600000000003)"><path fill-opacity="0.7" stroke-width="2" z-index="1" d="M 0 0 m 20, 0 a 20,15 0 1,1 -40,0 a 20,15 0 1,1 40,0" fill="#00a2e0" stroke="#00a2e0"></path><rect class="textbg" fill="#ffffff" width="345.1666564941406" height="17" x="-172.5833282470703" y="21"></rect><text class="nodelabel" y="35" text-anchor="middle">Patient receives and understands letter invitation</text></g><g style="cursor: move; touch-action: none;" transform="translate(696.438,198.59199999999998)"><path fill-opacity="0.7" stroke-width="2" z-index="1" d="M 0 0 m 20, 0 a 20,15 0 1,1 -40,0 a 20,15 0 1,1 40,0" fill="#00a2e0" stroke="#00a2e0"></path><rect class="textbg" fill="#ffffff" width="379.8833312988281" height="17" x="-189.94166564941406" y="21"></rect><text class="nodelabel" y="35" text-anchor="middle">Patient receives and understands telephone invitation</text></g><g style="cursor: move; touch-action: none;" transform="translate(1027.461,128.99200000000002)"><path fill-opacity="0.7" stroke-width="2" z-index="1" d="M 0 0 m 20, 0 a 20,15 0 1,1 -40,0 a 20,15 0 1,1 40,0" fill="#00a2e0" stroke="#00a2e0"></path><rect class="textbg" fill="#ffffff" width="539.933349609375" height="17" x="-269.9666748046875" y="21"></rect><text class="nodelabel" y="35" text-anchor="middle">Patient receives information from other sources regarding cervical screening</text></g><g style="cursor: move; touch-action: none;" transform="translate(707.902,864.8960000000001)"><path fill-opacity="0.7" stroke-width="2" z-index="1" d="M 0 0 m 20, 0 a 20,15 0 1,1 -40,0 a 20,15 0 1,1 40,0" fill="#aaaaaa" stroke="#666666"></path><rect class="textbg" fill="#ffffff" width="175.21665954589844" height="17" x="-87.60832977294922" y="21"></rect><text class="nodelabel" y="35" text-anchor="middle">Reduced cervical cancer</text></g><g style="cursor: move; touch-action: none;" transform="translate(692.139,49.184)"><path fill-opacity="0.7" stroke-width="2" z-index="1" d="M 0 0 m 20, 0 a 20,15 0 1,1 -40,0 a 20,15 0 1,1 40,0" fill="#bed403" stroke="#000000"></path><rect class="textbg" fill="#ffffff" width="291.76666259765625" height="17" x="-145.88333129882812" y="21"></rect><text class="nodelabel" y="35" text-anchor="middle">Telephone invitation to cervical screening</text><path d="M-4,-6L7,0L-4,6Z" fill="#000000"></path></g></svg>