<?xml version="1.0" encoding="UTF-8"?><svg xmlns="http://www.w3.org/2000/svg" width="1433" height="939" style="font-family: Arial, sans-serif"><g class="path" style="cursor: move;"><path stroke="#4dac26" stroke-width="1.5" fill="none" d="M448.75,573.70L449.67,652.33"></path><path stroke="#4dac26" stroke-width="1.5" fill="white" class="arrowfront" d="M-1,0L15,5L15,-5Z" transform="translate(449.6661916939872,652.32555301257) rotate(269.3329801997152)"></path></g><g class="path" style="cursor: move;"><path stroke="#4dac26" stroke-width="1.5" fill="none" d="M956.04,577.46L956.94,654.20"></path><path stroke="#4dac26" stroke-width="1.5" fill="white" class="arrowfront" d="M-1,0L15,5L15,-5Z" transform="translate(956.9432176813414,654.2036030299) rotate(269.3231561784786)"></path></g><g class="path" style="cursor: move;"><path stroke="#4dac26" stroke-width="1.5" fill="none" d="M542.34,403.95L679.63,465.67"></path><path stroke="#4dac26" stroke-width="1.5" fill="white" class="arrowfront" d="M-1,0L15,5L15,-5Z" transform="translate(679.6322154238849,465.66977804865815) rotate(204.20507413090195)"></path></g><g class="path" style="cursor: move;"><path stroke="black" stroke-width="1.5" fill="none" d="M439.93,145.52L439.93,235.41"></path><path stroke="black" stroke-width="1.5" fill="white" class="arrowfront" d="M-1,0L15,5L15,-5Z" transform="translate(439.93101429047186,235.4080000000013) rotate(269.99999135385985)"></path></g><g class="path" style="cursor: move;"><path stroke="#4dac26" stroke-width="1.5" fill="none" d="M857.70,405.83L724.71,465.67"></path><path stroke="#4dac26" stroke-width="1.5" fill="white" class="arrowfront" d="M-1,0L15,5L15,-5Z" transform="translate(724.708637127417,465.67128858065996) rotate(-24.225793930492976)"></path></g><g class="path" style="cursor: move;"><path stroke="#4dac26" stroke-width="1.5" fill="none" d="M938.63,679.69L729.88,751.81"></path><path stroke="#4dac26" stroke-width="1.5" fill="white" class="arrowfront" d="M-1,0L15,5L15,-5Z" transform="translate(729.8824820261551,751.8071486472855) rotate(-19.058447115871243)"></path></g><g class="path" style="cursor: move;"><path stroke="#4dac26" stroke-width="1.5" fill="none" d="M468.58,677.81L683.05,751.81"></path><path stroke="#4dac26" stroke-width="1.5" fill="white" class="arrowfront" d="M-1,0L15,5L15,-5Z" transform="translate(683.0538135419247,751.81075251378) rotate(199.03586712212524)"></path></g><g class="path" style="cursor: move;"><path stroke="#4dac26" stroke-width="1.5" fill="none" d="M683.52,479.63L471.97,551.87"></path><path stroke="#4dac26" stroke-width="1.5" fill="white" class="arrowfront" d="M-1,0L15,5L15,-5Z" transform="translate(471.97460557599317,551.868128404065) rotate(-18.853007262133836)"></path></g><g class="path" style="cursor: move;"><path stroke="#4dac26" stroke-width="1.5" fill="none" d="M720.71,479.84L932.49,555.36"></path><path stroke="#4dac26" stroke-width="1.5" fill="white" class="arrowfront" d="M-1,0L15,5L15,-5Z" transform="translate(932.4916544217526,555.3612670700562) rotate(199.62626082030513)"></path></g><g class="path" style="cursor: move;"><path stroke="black" stroke-width="1.5" fill="none" d="M449.18,268.71L512.37,379.79"></path><path stroke="black" stroke-width="1.5" fill="white" class="arrowfront" d="M-1,0L15,5L15,-5Z" transform="translate(512.3736459136461,379.78915522006065) rotate(240.36436169235958)"></path></g><g class="path" style="cursor: move;"><path stroke="black" stroke-width="1.5" fill="none" d="M458.60,260.80L852.09,392.30"></path><path stroke="black" stroke-width="1.5" fill="white" class="arrowfront" d="M-1,0L15,5L15,-5Z" transform="translate(852.0889670569414,392.29893463566606) rotate(198.47935997670308)"></path></g><g class="path" style="cursor: move;"><path stroke="#4dac26" stroke-width="1.5" fill="none" d="M684.30,212.87L540.18,381.77"></path><path stroke="#4dac26" stroke-width="1.5" fill="white" class="arrowfront" d="M-1,0L15,5L15,-5Z" transform="translate(540.1777699253696,381.76726185081657) rotate(-49.524425659905944)"></path></g><g class="path" style="cursor: move;"><path stroke="#4dac26" stroke-width="1.5" fill="none" d="M708.81,212.73L859.57,383.84"></path><path stroke="#4dac26" stroke-width="1.5" fill="white" class="arrowfront" d="M-1,0L15,5L15,-5Z" transform="translate(859.5732238669731,383.8382009167625) rotate(228.61580540678446)"></path></g><g class="path" style="cursor: move;"><path stroke="black" stroke-width="1.5" fill="none" d="M1010.43,138.38L546.05,387.24"></path><path stroke="black" stroke-width="1.5" fill="white" class="arrowfront" d="M-1,0L15,5L15,-5Z" transform="translate(546.051988040654,387.23736866972325) rotate(-28.186283135490616)"></path></g><g class="path" style="cursor: move;"><path stroke="black" stroke-width="1.5" fill="none" d="M1018.59,143.97L887.19,381.46"></path><path stroke="black" stroke-width="1.5" fill="white" class="arrowfront" d="M-1,0L15,5L15,-5Z" transform="translate(887.1898392307012,381.4550910612532) rotate(-61.04492149634577)"></path></g><g class="path" style="cursor: move;"><path stroke="#4dac26" stroke-width="1.5" fill="none" d="M692.64,64.76L695.77,180.95"></path><path stroke="#4dac26" stroke-width="1.5" fill="white" class="arrowfront" d="M-1,0L15,5L15,-5Z" transform="translate(695.7712753039064,180.95346723681197) rotate(268.4558402807833)"></path></g><g class="path" style="cursor: move;"><path stroke="black" stroke-width="1.5" fill="none" d="M685.00,883.83L946.00,881.22"></path><path stroke="black" stroke-width="1.5" fill="white" class="arrowfront" d="M-1,0L15,5L15,-5Z" transform="translate(946.0015152911167,881.2155556494926) rotate(179.4266241757403)"></path></g><g class="path" style="cursor: move;"><path stroke="black" stroke-width="1.5" fill="none" d="M700.89,773.12L672.39,864.93"></path><path stroke="black" stroke-width="1.5" fill="white" class="arrowfront" d="M-1,0L15,5L15,-5Z" transform="translate(672.3870524159368,864.9294418874147) rotate(-72.75377739047785)"></path></g><g class="path" style="cursor: move;"><path stroke="#4dac26" stroke-width="1.5" fill="none" d="M687.21,762.77L471.15,815.91"></path><path stroke="#4dac26" stroke-width="1.5" fill="white" class="arrowfront" d="M-1,0L15,5L15,-5Z" transform="translate(471.1530733236903,815.9142998579773) rotate(-13.819610228581537)"></path></g><g class="path" style="cursor: move;"><path stroke="#4dac26" stroke-width="1.5" fill="none" d="M430.25,812.80Q209.00,687.00 427.01,568.74"></path><path stroke="#4dac26" stroke-width="1.5" fill="white" class="arrowfront" d="M-1,0L15,5L15,-5Z" transform="translate(427.0105087658751,568.7393496495058) rotate(151.52220970709405)"></path></g><g style="cursor: move; touch-action: none;" transform="translate(448.529,558.7049999999999)"><path fill-opacity="0.7" stroke-width="2" z-index="1" d="M 0 0 m 20, 0 a 20,15 0 1,1 -40,0 a 20,15 0 1,1 40,0" fill="#00a2e0" stroke="#00a2e0"></path><rect class="textbg" fill="#ffffff" width="306" height="18" x="-153.25" y="20.5"></rect><text class="nodelabel" y="35" text-anchor="middle">Appointment for cervical screening at clinic</text></g><g style="cursor: move; touch-action: none;" transform="translate(955.811,562.461)"><path fill-opacity="0.7" stroke-width="2" z-index="1" d="M 0 0 m 20, 0 a 20,15 0 1,1 -40,0 a 20,15 0 1,1 40,0" fill="#00a2e0" stroke="#00a2e0"></path><rect class="textbg" fill="#ffffff" width="368.5" height="18" x="-184.5" y="20.5"></rect><text class="nodelabel" y="35" text-anchor="middle">Appointment for cervical screening at different clinic</text></g><g style="cursor: move; touch-action: none;" transform="translate(706.4689999999999,758.7120000000001)"><path fill-opacity="0.7" stroke-width="2" z-index="1" d="M 0 0 m 20, 0 a 20,15 0 1,1 -40,0 a 20,15 0 1,1 40,0" fill="#00a2e0" stroke="#000000"></path><rect class="textbg" fill="#ffffff" width="282" height="18" x="-141" y="20.5"></rect><text class="nodelabel" y="35" text-anchor="middle">Increased proportion cervical screening</text><path d="M-2,-6L2,-6L2,6L-2,6Z" fill="#000000"></path></g><g style="cursor: move; touch-action: none;" transform="translate(524.478,397.197)"><path fill-opacity="0.7" stroke-width="2" z-index="1" d="M 0 0 m 20, 0 a 20,15 0 1,1 -40,0 a 20,15 0 1,1 40,0" fill="#00a2e0" stroke="#00a2e0"></path><rect class="textbg" fill="#ffffff" width="295" height="18" x="-147.5" y="20.5"></rect><text class="nodelabel" y="35" text-anchor="middle">Knowledge of need for cervical screening</text></g><g style="cursor: move; touch-action: none;" transform="translate(439.931,130.52100000000002)"><path fill-opacity="0.7" stroke-width="2" z-index="1" d="M 0 0 m 20, 0 a 20,15 0 1,1 -40,0 a 20,15 0 1,1 40,0" fill="#00a2e0" stroke="#00a2e0"></path><rect class="textbg" fill="#ffffff" width="261" height="18" x="-130.5" y="20.5"></rect><text class="nodelabel" y="35" text-anchor="middle">Letter invitation to cervical screening</text></g><g style="cursor: move; touch-action: none;" transform="translate(875.563,399.075)"><path fill-opacity="0.7" stroke-width="2" z-index="1" d="M 0 0 m 20, 0 a 20,15 0 1,1 -40,0 a 20,15 0 1,1 40,0" fill="#00a2e0" stroke="#00a2e0"></path><rect class="textbg" fill="#ffffff" width="199.5" height="18" x="-99.75" y="20.5"></rect><text class="nodelabel" y="35" text-anchor="middle">Motivated to screen on-time</text></g><g style="cursor: move; touch-action: none;" transform="translate(957.244,674.202)"><path fill-opacity="0.7" stroke-width="2" z-index="1" d="M 0 0 m 20, 0 a 20,15 0 1,1 -40,0 a 20,15 0 1,1 40,0" fill="#00a2e0" stroke="#00a2e0"></path><rect class="textbg" fill="#ffffff" width="475.5" height="18" x="-237.75" y="20.5"></rect><text class="nodelabel" y="35" text-anchor="middle">Patient attends appointment at another clinic for cervical screening</text></g><g style="cursor: move; touch-action: none;" transform="translate(449.962,672.324)"><path fill-opacity="0.7" stroke-width="2" z-index="1" d="M 0 0 m 20, 0 a 20,15 0 1,1 -40,0 a 20,15 0 1,1 40,0" fill="#00a2e0" stroke="#00a2e0"></path><rect class="textbg" fill="#ffffff" width="358" height="18" x="-179" y="20.5"></rect><text class="nodelabel" y="35" text-anchor="middle">Patient attends appointment for cervical screening</text></g><g style="cursor: move; touch-action: none;" transform="translate(702.17,474.195)"><path fill-opacity="0.7" stroke-width="2" z-index="1" d="M 0 0 m 20, 0 a 20,15 0 1,1 -40,0 a 20,15 0 1,1 40,0" fill="#00a2e0" stroke="#00a2e0"></path><rect class="textbg" fill="#ffffff" width="284" height="18" x="-142" y="20.5"></rect><text class="nodelabel" y="35" text-anchor="middle">Patient decides to do cervical screening</text></g><g style="cursor: move; touch-action: none;" transform="translate(439.931,255.40800000000002)"><path fill-opacity="0.7" stroke-width="2" z-index="1" d="M 0 0 m 20, 0 a 20,15 0 1,1 -40,0 a 20,15 0 1,1 40,0" fill="#00a2e0" stroke="#00a2e0"></path><rect class="textbg" fill="#ffffff" width="348" height="18" x="-174" y="20.5"></rect><text class="nodelabel" y="35" text-anchor="middle">Patient receives and understands letter invitation</text></g><g style="cursor: move; touch-action: none;" transform="translate(696.438,200.946)"><path fill-opacity="0.7" stroke-width="2" z-index="1" d="M 0 0 m 20, 0 a 20,15 0 1,1 -40,0 a 20,15 0 1,1 40,0" fill="#00a2e0" stroke="#00a2e0"></path><rect class="textbg" fill="#ffffff" width="383" height="18" x="-191.5" y="20.5"></rect><text class="nodelabel" y="35" text-anchor="middle">Patient receives and understands telephone invitation</text></g><g style="cursor: move; touch-action: none;" transform="translate(1027.461,130.52100000000002)"><path fill-opacity="0.7" stroke-width="2" z-index="1" d="M 0 0 m 20, 0 a 20,15 0 1,1 -40,0 a 20,15 0 1,1 40,0" fill="#00a2e0" stroke="#00a2e0"></path><rect class="textbg" fill="#ffffff" width="545" height="18" x="-272.5" y="20.5"></rect><text class="nodelabel" y="35" text-anchor="middle">Patient receives information from other sources regarding cervical screening</text></g><g style="cursor: move; touch-action: none;" transform="translate(971,881)"><path fill-opacity="0.7" stroke-width="2" z-index="1" d="M 0 0 m 20, 0 a 20,15 0 1,1 -40,0 a 20,15 0 1,1 40,0" fill="#aaaaaa" stroke="#666666"></path><rect class="textbg" fill="#ffffff" width="177" height="18" x="-88.25" y="20.5"></rect><text class="nodelabel" y="35" text-anchor="middle">Reduced cervical cancer</text></g><g style="cursor: move; touch-action: none;" transform="translate(692.139,49.766999999999996)"><path fill-opacity="0.7" stroke-width="2" z-index="1" d="M 0 0 m 20, 0 a 20,15 0 1,1 -40,0 a 20,15 0 1,1 40,0" fill="#bed403" stroke="#000000"></path><rect class="textbg" fill="#ffffff" width="294" height="18" x="-147" y="20.5"></rect><text class="nodelabel" y="35" text-anchor="middle">Telephone invitation to cervical screening</text><path d="M-4,-6L7,0L-4,6Z" fill="#000000"></path></g><g style="cursor: move; touch-action: none;" transform="translate(665,884)"><path fill-opacity="0.7" stroke-width="2" z-index="1" d="M 0 0 m 20, 0 a 20,15 0 1,1 -40,0 a 20,15 0 1,1 40,0" fill="#aaaaaa" stroke="black"></path><rect class="textbg" fill="#ffffff" width="283" height="18" x="-141.5" y="20.5"></rect><text class="nodelabel" y="35" text-anchor="middle">Increased referrals for cervical changes</text></g><g style="cursor: move; touch-action: none;" transform="translate(446.99999999999994,821)"><path fill-opacity="0.7" stroke-width="2" z-index="1" d="M 0 0 m 20, 0 a 20,15 0 1,1 -40,0 a 20,15 0 1,1 40,0" fill="#00a2e0" stroke="#00a2e0"></path><rect class="textbg" fill="#ffffff" width="309.5" height="18" x="-154.75" y="20.5"></rect><text class="nodelabel" y="35" text-anchor="middle">Increased review of minor cervical changes</text></g></svg>